<?xml version="1.0"?>
<svg xmlns="http://www.w3.org/2000/svg" xmlns:xlink="http://www.w3.org/1999/xlink" version="1.1" id="Capa_1" x="0px" y="0px" viewBox="0 0 512 512" style="enable-background:new 0 0 512 512;" xml:space="preserve" width="512px" height="512px" class=""><g><path style="fill:#B3E5FC" d="M310.451,14.618c-0.247,3.311-2.432,6.323-6.716,6.059c-32.307-1.98-64.299,2.62-96.529-1.331  c-3.072-0.375-5.026-2.33-5.99-4.651C90.914,39.637,8.533,138.163,8.533,256c0,39.014,9.148,75.861,25.233,108.681  c2.176-0.7,4.651-0.503,6.801,1.51c12.553,11.742,19.951,27.119,29.909,40.9c10.863,15.027,27.913,27.358,35.908,44.092  c0.358,0.759,0.452,1.485,0.563,2.219c9.984,7.552,20.489,14.447,31.565,20.437c1.502-2.167,4.087-3.575,7.373-2.799  c36.002,8.474,67.038,26.445,104.363,26.641c24.303,0.128,45.491-6.605,68.617-12.911c12.791-3.49,36.898-3.302,47.343-11.23  c2.782-2.108,5.513-1.587,7.441,0.137c10.718-5.803,21.009-12.314,30.694-19.584c-0.213-2.355,0.631-4.779,3.285-6.332  c13.773-8.064,25.472-26.641,34.731-39.151c4.727-6.391,9.429-12.817,14.626-18.842c4.087-4.736,15.13-12.706,15.94-18.918  c0.452-3.43,2.833-5.53,5.513-6.332c16.017-32.768,25.028-69.589,25.028-108.518C503.467,138.044,420.915,39.433,310.451,14.618z" data-original="#1081E0" class="" data-old_color="#1081E0"/><path style="fill:#D0D0D0" d="M403.652,454.596c31.949-23.791,57.967-55.1,75.418-91.315c-2.944-52.557-18.27-98.748-18.27-98.748  c8.533-25.6,0-51.2,0-51.2C469.333,128,392.533,128,392.533,128c-25.6-8.533-85.333-51.2-85.333-51.2l-6.716-49.374  C288.171,48.563,272.324,68.267,256,68.267c-16.324,0-32.171-19.703-44.484-40.841L204.8,76.8c0,0-59.733,42.667-85.333,51.2  c0,0-76.8,0-68.267,85.333c0,0-8.533,25.6,0,51.2c0,0-15.326,46.191-18.27,98.748c17.451,36.215,43.469,67.524,75.418,91.315  l-5.948-53.53c0,0,16.674-29.372,25.6-102.4c-0.862,15.556-1.809,39.04,8.533,59.733c0,0,16.128,56.781,1.126,114.978  c35.157,19.183,75.477,30.089,118.34,30.089c42.863,0,83.183-10.906,118.34-30.089c-15.002-58.197,1.126-114.978,1.126-114.978  c10.342-20.693,9.395-44.177,8.533-59.733c8.926,73.028,25.6,102.4,25.6,102.4L403.652,454.596z" data-original="#FBCE9D" class="" data-old_color="#d0d0d0"/><path style="fill:#EA7F5F" d="M128,307.2c-4.71,0-8.533-3.823-8.533-8.533V276.48c-28.297-31.036-11.017-64.205,2.5-77.713  c3.328-3.337,8.738-3.337,12.066,0c3.328,3.328,3.337,8.713,0.017,12.049c-2.893,2.944-27.093,29.141-0.017,56.218  c1.604,1.596,2.5,3.772,2.5,6.033v25.6C136.533,303.377,132.71,307.2,128,307.2z" data-original="#EA7F5F" class=""/><path style="fill:#D0D0D0" d="M256,8.533c-19.2,0-37.862,2.261-55.808,6.4C212.983,41.771,234.069,77.338,256,77.338  s43.017-35.567,55.808-62.404C293.862,10.795,275.2,8.533,256,8.533z" data-original="#D37F2B" class="active-path" data-old_color="#d0d0d0"/><g>
	<path style="fill:#0288D1" d="M256,512C114.842,512,0,397.158,0,256S114.842,0,256,0s256,114.842,256,256S397.158,512,256,512z    M256,17.067C124.254,17.067,17.067,124.254,17.067,256S124.254,494.933,256,494.933S494.933,387.746,494.933,256   S387.746,17.067,256,17.067z" data-original="#4D007E" class="" data-old_color="#4D007E"/>
	<path style="fill:#0288D1" d="M256,85.862c-20.873,0-42.231-22.63-63.505-67.268c-1.109-2.338-1.109-5.052,0.017-7.381   s3.243-4.028,5.769-4.608c38.059-8.772,77.38-8.772,115.439,0c2.526,0.58,4.642,2.278,5.769,4.608s1.135,5.043,0.017,7.381   C298.232,63.232,276.873,85.862,256,85.862z M212.762,21.035c15.65,30.114,31.505,47.761,43.238,47.761   c11.733,0,27.588-17.655,43.238-47.761C270.566,15.761,241.434,15.761,212.762,21.035z" data-original="#4D007E" class="" data-old_color="#4D007E"/>
	<path style="fill:#0288D1" d="M128,307.2c-4.71,0-8.533-3.823-8.533-8.533V276.48c-28.297-31.036-11.017-64.205,2.5-77.713   c3.328-3.337,8.738-3.337,12.066,0c3.328,3.328,3.337,8.713,0.017,12.049c-2.893,2.944-27.093,29.141-0.017,56.218   c1.604,1.596,2.5,3.772,2.5,6.033v25.6C136.533,303.377,132.71,307.2,128,307.2z" data-original="#4D007E" class="" data-old_color="#4D007E"/>
	<path style="fill:#0288D1" d="M384,307.2c-4.71,0-8.533-3.823-8.533-8.533v-25.6c0-2.261,0.896-4.437,2.5-6.033   c27.093-27.093,2.833-53.325-0.026-56.218c-3.294-3.354-3.277-8.747,0.06-12.058s8.704-3.319,12.032,0.009   c13.508,13.508,30.797,46.677,2.5,77.713v22.187C392.533,303.377,388.71,307.2,384,307.2z" data-original="#4D007E" class="" data-old_color="#4D007E"/>
	<path style="fill:#0288D1" d="M181.564,290.33c-15.266,0-33.69-2.645-55.927-9.062c-4.531-1.306-7.142-6.042-5.828-10.564   c1.306-4.531,6.042-7.125,10.564-5.837c56.405,16.29,92.595,9.156,104.653-20.608c1.766-4.378,6.75-6.485,11.11-4.702   c4.369,1.775,6.477,6.75,4.702,11.11C244.087,267.341,226.586,290.33,181.564,290.33z" data-original="#4D007E" class="" data-old_color="#4D007E"/>
	<path style="fill:#0288D1" d="M330.487,290.33c-45.047,0-62.532-23.006-69.282-39.689c-1.766-4.369,0.341-9.344,4.71-11.11   c4.361-1.741,9.344,0.341,11.11,4.71c12.049,29.781,48.239,36.932,104.661,20.625c4.523-1.297,9.25,1.306,10.564,5.837   c1.306,4.531-1.306,9.259-5.828,10.564C364.177,287.684,345.745,290.33,330.487,290.33z" data-original="#4D007E" class="" data-old_color="#4D007E"/>
	<path style="fill:#0288D1" d="M234.684,128.009c-1.28,0-2.586-0.29-3.814-0.905c-6.963-3.482-18.62-7.637-34.603-7.637   c-4.71,0-8.533-3.823-8.533-8.533c0-4.71,3.823-8.533,8.533-8.533c15.283,0,29.892,3.268,42.24,9.446   c4.215,2.108,5.922,7.236,3.814,11.452C240.828,126.285,237.815,128.009,234.684,128.009z" data-original="#4D007E" class="" data-old_color="#4D007E"/>
	<path style="fill:#0288D1" d="M213.333,93.867c-2.185,0-4.369-0.836-6.033-2.5l-8.533-8.533c-3.337-3.337-3.337-8.73,0-12.066   c3.328-3.337,8.738-3.337,12.066,0l8.533,8.533c3.337,3.337,3.337,8.73,0,12.066C217.702,93.03,215.518,93.867,213.333,93.867z" data-original="#4D007E" class="" data-old_color="#4D007E"/>
	<path style="fill:#0288D1" d="M256,512c-42.761,0-85.094-10.761-122.428-31.13c-3.43-1.869-5.154-5.837-4.173-9.617   c13.389-51.934,0.828-103.287-0.887-109.824c-0.751-1.553-1.451-3.115-2.099-4.685c-6.221,25.788-12.544,40.371-15.249,45.935   l5.666,50.978c0.375,3.379-1.289,6.656-4.233,8.346c-2.953,1.673-6.622,1.468-9.344-0.555   c-33.152-24.695-60.126-57.353-78.003-94.455c-0.623-1.297-0.913-2.739-0.836-4.181c2.603-46.524,14.507-87.569,17.843-98.295   c-6.801-23.245-1.536-45.551,0.299-52.036c-2.526-28.493,3.721-51.251,18.56-67.652c20.241-22.366,49.673-25.011,56.806-25.318   c21.538-7.757,67.174-39.287,79.053-47.625l6.135-36.796c0.589-3.55,3.345-6.34,6.878-6.989c3.541-0.649,7.1,0.99,8.909,4.096   c18.551,31.846,31.215,36.608,37.111,36.608s18.551-4.753,37.111-36.608c1.809-3.106,5.376-4.745,8.909-4.096   c3.541,0.649,6.289,3.439,6.878,6.989l6.135,36.796c11.878,8.337,57.532,39.868,79.053,47.625   c7.134,0.307,36.565,2.953,56.806,25.318c14.839,16.401,21.077,39.151,18.56,67.652c1.835,6.477,7.1,28.791,0.299,52.036   c3.337,10.726,15.241,51.772,17.843,98.295c0.077,1.442-0.205,2.876-0.836,4.181c-17.869,37.103-44.851,69.76-78.003,94.455   c-2.731,2.014-6.4,2.236-9.344,0.555c-2.944-1.69-4.608-4.975-4.233-8.346l5.666-50.978c-2.705-5.564-9.028-20.147-15.249-45.935   c-0.64,1.57-1.34,3.132-2.091,4.685c-1.707,6.554-14.234,58.052-0.887,109.833c0.981,3.78-0.742,7.748-4.173,9.617   C341.094,501.239,298.761,512,256,512z M147.499,468.924c33.399,17.033,70.767,26.01,108.501,26.01   c37.734,0,75.102-8.977,108.501-26.01c-12.672-57.31,2.099-110.541,2.756-112.862c0.145-0.512,0.341-1.007,0.572-1.485   c9.651-19.311,8.397-41.933,7.646-55.441c-0.256-4.599,3.183-8.567,7.765-8.977c4.599-0.375,8.67,2.893,9.225,7.467   c8.542,69.897,24.405,98.961,24.567,99.251c0.862,1.553,1.237,3.362,1.041,5.129l-3.644,32.819   c23.177-20.565,42.308-45.568,55.987-73.276c-3.14-49.929-17.57-93.884-17.715-94.327c-0.58-1.749-0.58-3.635,0-5.385   c7.552-22.639,0.077-45.568,0-45.798c-0.375-1.143-0.512-2.347-0.393-3.55c2.432-24.294-2.304-43.204-14.071-56.209   c-17.664-19.524-45.423-19.746-45.705-19.746c-0.913,0-1.826-0.145-2.697-0.435c-26.513-8.841-85.111-50.577-87.595-52.352   c-1.843-1.314-3.089-3.311-3.456-5.538l-3.132-18.799c-26.709,35.533-52.591,35.533-79.3,0l-3.132,18.799   c-0.367,2.227-1.613,4.224-3.456,5.538c-2.483,1.775-61.082,43.511-87.595,52.352c-0.879,0.29-1.792,0.435-2.705,0.435   c-0.256,0-28.297,0.393-45.807,19.857c-11.691,12.996-16.393,31.872-13.969,56.098c0.119,1.203-0.017,2.406-0.393,3.55   c-0.068,0.205-7.484,23.347,0,45.798c0.58,1.749,0.58,3.635,0,5.385c-0.145,0.444-14.583,44.501-17.715,94.327   c13.679,27.716,32.811,52.71,55.987,73.276l-3.644-32.819c-0.196-1.783,0.171-3.593,1.058-5.154   c0.145-0.256,16.009-29.321,24.55-99.217c0.555-4.574,4.617-7.842,9.225-7.467c4.582,0.41,8.021,4.378,7.765,8.977   c-0.751,13.508-2.005,36.13,7.646,55.441c0.239,0.478,0.427,0.973,0.572,1.485C145.399,358.391,160.179,411.614,147.499,468.924z" data-original="#4D007E" class="" data-old_color="#4D007E"/>
	<path style="fill:#0288D1" d="M256,469.333c-14.114,0-25.6-11.486-25.6-25.6c0-4.71,3.823-8.533,8.533-8.533   s8.533,3.823,8.533,8.533c0,4.702,3.823,8.533,8.533,8.533c4.71,0,8.533-3.831,8.533-8.533c0-4.71,3.823-8.533,8.533-8.533   c4.71,0,8.533,3.823,8.533,8.533C281.6,457.847,270.114,469.333,256,469.333z" data-original="#4D007E" class="" data-old_color="#4D007E"/>
	<path style="fill:#0288D1" d="M205.568,350.225c-6.298,0-12.595-0.589-18.577-1.792c-12.834-2.586-23.842-11.238-30.822-18.048   c-3.371-3.294-3.439-8.695-0.145-12.066c3.294-3.379,8.695-3.43,12.066-0.154c7.535,7.356,15.445,12.16,22.272,13.534   c12.151,2.458,26.479,1.766,37.385-1.783c4.489-1.476,9.293,0.99,10.761,5.47c1.459,4.48-0.99,9.293-5.47,10.752   C224.742,348.834,215.168,350.225,205.568,350.225z" data-original="#4D007E" class="" data-old_color="#4D007E"/>
	<path style="fill:#0288D1" d="M296.798,401.417c-0.111,0-0.222,0-0.333,0c-5.7-0.068-11.401-2.295-16.913-4.446   c-3.063-1.195-5.956-2.321-8.567-2.978c-4.565-1.152-7.339-5.794-6.187-10.359c1.152-4.574,5.777-7.339,10.359-6.195   c3.644,0.922,7.177,2.296,10.598,3.627c4.087,1.596,8.32,3.243,10.914,3.277c0.043,0,0.094,0,0.137,0   c6.63,0,13.551-5.726,19.524-11.11c3.499-3.157,8.892-2.884,12.049,0.631c3.157,3.499,2.867,8.892-0.631,12.049   C321.715,391.356,310.537,401.417,296.798,401.417z" data-original="#4D007E" class="" data-old_color="#4D007E"/>
	<path style="fill:#0288D1" d="M306.432,350.225c-9.6,0-19.174-1.382-27.477-4.087c-4.48-1.459-6.929-6.272-5.47-10.752   c1.459-4.489,6.272-6.938,10.761-5.47c10.906,3.55,25.233,4.241,37.385,1.783c6.835-1.374,14.746-6.178,22.281-13.534   c3.379-3.277,8.781-3.226,12.066,0.154c3.285,3.371,3.226,8.772-0.145,12.066c-6.98,6.81-17.988,15.462-30.822,18.048   C319.027,349.628,312.721,350.225,306.432,350.225z" data-original="#4D007E" class="" data-old_color="#4D007E"/>
	<path style="fill:#0288D1" d="M196.267,477.867c-4.71,0-8.533-3.823-8.533-8.533c0-18.671-17.246-45.756-23.893-54.613   c-2.825-3.772-2.065-9.122,1.707-11.947c3.772-2.825,9.122-2.065,11.947,1.707c1.118,1.485,27.307,36.736,27.307,64.853   C204.8,474.044,200.977,477.867,196.267,477.867z" data-original="#4D007E" class="" data-old_color="#4D007E"/>
	<path style="fill:#0288D1" d="M315.733,477.867c-4.71,0-8.533-3.823-8.533-8.533c0-28.117,26.189-63.368,27.307-64.853   c2.833-3.763,8.175-4.531,11.938-1.707c3.772,2.825,4.54,8.175,1.715,11.947c-6.647,8.883-23.893,36.011-23.893,54.613   C324.267,474.044,320.444,477.867,315.733,477.867z" data-original="#4D007E" class="" data-old_color="#4D007E"/>
	<path style="fill:#0288D1" d="M170.667,256c-25.31,0-25.6-16.367-25.6-17.067c0-4.71,3.823-8.533,8.533-8.533   c4.164,0,7.637,2.987,8.38,6.929c0.666,0.452,2.918,1.604,8.687,1.604c4.71,0,8.533,3.823,8.533,8.533S175.377,256,170.667,256z    M162.133,238.933h0.085H162.133z" data-original="#4D007E" class="" data-old_color="#4D007E"/>
	<path style="fill:#0288D1" d="M341.333,256c-4.71,0-8.533-3.823-8.533-8.533s3.823-8.533,8.533-8.533   c5.769,0,8.021-1.152,8.687-1.604c0.742-3.942,4.215-6.929,8.38-6.929c4.71,0,8.533,3.823,8.533,8.533   C366.933,239.633,366.643,256,341.333,256z" data-original="#4D007E" class="" data-old_color="#4D007E"/>
	<path style="fill:#0288D1" d="M366.583,153.6c-0.794,0-1.604-0.111-2.398-0.35c-4.523-1.323-7.117-6.067-5.794-10.59   c5.786-19.789,32.06-23.023,33.169-23.151c4.668-0.563,8.917,2.825,9.446,7.509c0.538,4.676-2.807,8.892-7.484,9.446   c-4.19,0.512-16.606,3.627-18.765,10.991C373.675,151.185,370.27,153.6,366.583,153.6z" data-original="#4D007E" class="" data-old_color="#4D007E"/>
	<path style="fill:#0288D1" d="M136.175,153.6c-4.531,0-8.277-3.55-8.516-8.081c-0.119-1.178-1.195-6.673-10.513-9.31   c-4.531-1.28-7.177-5.999-5.888-10.53c1.28-4.54,5.999-7.142,10.53-5.888c17.673,4.992,22.724,18.091,22.921,25.037   c0.137,4.71-3.575,8.636-8.286,8.772C136.337,153.6,136.252,153.6,136.175,153.6z" data-original="#4D007E" class="" data-old_color="#4D007E"/>
	<path style="fill:#0288D1" d="M51.191,221.867c-1.852,0-3.721-0.597-5.291-1.843c-3.695-2.927-4.318-8.294-1.399-11.989   c1.655-2.074,16.546-20.301,32.657-20.301c4.71,0,8.533,3.823,8.533,8.533s-3.823,8.533-8.533,8.533   c-5.675,0-14.848,8.252-19.268,13.833C56.209,220.757,53.709,221.867,51.191,221.867z" data-original="#4D007E" class="" data-old_color="#4D007E"/>
	<path style="fill:#0288D1" d="M460.8,221.858c-2.509,0-5.001-1.101-6.682-3.217c-4.446-5.581-13.653-13.841-19.277-13.841   c-4.71,0-8.533-3.823-8.533-8.533s3.823-8.533,8.533-8.533c16.111,0,31.002,18.227,32.649,20.301   c2.918,3.695,2.295,9.045-1.391,11.972C464.538,221.252,462.669,221.858,460.8,221.858z" data-original="#4D007E" class="" data-old_color="#4D007E"/>
	<path style="fill:#0288D1" d="M277.333,128c-3.132,0-6.144-1.724-7.637-4.719c-2.108-4.215-0.401-9.344,3.814-11.452   c12.348-6.17,26.948-9.429,42.223-9.429c4.71,0,8.533,3.823,8.533,8.533c0,4.71-3.823,8.533-8.533,8.533   c-15.966,0-27.622,4.147-34.586,7.637C279.919,127.71,278.622,128,277.333,128z" data-original="#4D007E" class="" data-old_color="#4D007E"/>
	<path style="fill:#0288D1" d="M298.667,93.867c-2.185,0-4.369-0.836-6.033-2.5c-3.337-3.337-3.337-8.73,0-12.066l8.533-8.533   c3.328-3.337,8.738-3.337,12.066,0c3.337,3.337,3.337,8.73,0,12.066l-8.533,8.533C303.036,93.03,300.851,93.867,298.667,93.867z" data-original="#4D007E" class="" data-old_color="#4D007E"/>
	<path style="fill:#0288D1" d="M212.975,401.417c-13.747,0-24.917-10.061-30.95-15.488c-3.499-3.157-3.78-8.55-0.631-12.058   c3.157-3.499,8.55-3.772,12.049-0.631c6.016,5.41,12.689,10.923,19.661,11.11c2.594-0.026,6.827-1.681,10.914-3.277   c3.422-1.331,6.955-2.705,10.598-3.627c4.574-1.152,9.207,1.621,10.359,6.195c1.152,4.565-1.621,9.207-6.187,10.359   c-2.611,0.657-5.504,1.783-8.567,2.978c-5.513,2.15-11.213,4.378-16.913,4.446C213.188,401.417,213.077,401.417,212.975,401.417z" data-original="#4D007E" class="" data-old_color="#4D007E"/>
</g></g> </svg>
